PathFileType	4	(X/Y/Z)	Patient4_TMGait_0pt5_01_right_02.trc.trc
DataRate	CameraRate	NumFrames	NumMarkers	Units	OrigDataRate	OrigDataStartFrame	OrigNumFrames
76.086956521739	76.086956521739	4	33	mm	76.086956521739	106	       141
Frame#	Time	L.ASIS			Sacral			L.Shoulder			Chest			R.Shoulder			Neck			R.ASIS			R.Thigh.Superior			R.Thigh.Lateral			R.Thigh.Inferior			R.Patella			L.Thigh.Superior			L.Thigh.Lateral			L.Thigh.Inferior			L.Patella			L.Shank.Superior			L.Shank.Lateral			L.Shank.Inferior			R.Shank.Superior			R.Shank.Lateral			R.Shank.Inferior			R.Heel			R.Midfoot.Superior			R.Midfoot.Lateral			R.Toe			L.Heel			L.Midfoot.Lateral			L.Midfoot.Superior			L.Toe			L.Elbow			L.Wrist			R.Elbow			R.Wrist			
		X1	Y1	Z1	X2	Y2	Z2	X3	Y3	Z3	X4	Y4	Z4	X5	Y5	Z5	X6	Y6	Z6	X7	Y7	Z7	X8	Y8	Z8	X9	Y9	Z9	X10	Y10	Z10	X11	Y11	Z11	X12	Y12	Z12	X13	Y13	Z13	X14	Y14	Z14	X15	Y15	Z15	X16	Y16	Z16	X17	Y17	Z17	X18	Y18	Z18	X19	Y19	Z19	X20	Y20	Z20	X21	Y21	Z21	X22	Y22	Z22	X23	Y23	Z23	X24	Y24	Z24	X25	Y25	Z25	X26	Y26	Z26	X27	Y27	Z27	X28	Y28	Z28	X29	Y29	Z29	X30	Y30	Z30	X31	Y31	Z31	X32	Y32	Z32	X33	Y33	Z33	

106	3.290000000000	780.002451408439	963.943257598982	293.163569860761	557.927877874288	1011.568917608558	441.208272720288	751.184805553688	1440.777648237789	268.817219052284	840.079520893336	1367.634796429106	436.714763253166	744.838031791794	1441.234805976248	605.596754106912	741.989212415189	1500.649584430152	419.654452361532	779.907976983925	949.145370582777	567.894744511196	864.861539621599	780.699753342229	538.252239361814	826.041300455039	660.400597000627	610.123776209003	915.231744873277	620.883938035334	530.686002020586	937.793520856755	510.941242894054	553.976380857147	816.494291131436	747.366606107628	327.957579303855	723.377166266195	635.753633933268	270.565282187080	797.494386850345	554.818003986097	340.431100576102	792.273424658743	484.955038542351	353.648840824879	764.806312218850	415.012405528015	345.113236467291	675.938316262444	302.226752050114	292.264863259470	717.224649651397	191.902115154399	369.267465991564	870.395686989413	431.091864618124	562.496911243997	756.619234594489	375.755805620718	623.682524547108	757.138617606235	265.440509584513	576.477147062207	566.352917711780	177.378475211660	548.892366221620	740.016861809423	142.213972343313	591.346880433991	632.057536781690	129.427006641212	625.117438971682	819.048958871935	42.138711295192	625.165118429712	581.169237390978	38.111341125792	407.463158146547	658.379362850587	35.249277752845	329.363237858734	741.178108938123	95.486171241352	359.102689865206	870.196572668615	42.014254564959	335.564693372314	758.830909987818	1099.255374614862	119.264874592663	966.650433488699	942.878564747512	139.947519482269	642.163254305908	1107.840210346848	712.938771501099	641.370633493410	847.112010353263	724.616421449272	
107	3.303142857143	779.805097452992	963.846519797024	293.939490924948	556.989761981769	1011.853589048404	440.282433958239	752.778583382018	1440.891731957192	269.161009780609	839.842790685908	1367.532105479273	437.972616370543	742.986764603723	1441.282845804426	605.877035749551	742.221702429237	1500.749535338382	419.924625622724	778.207910137019	949.689647992370	568.605391987996	863.957046744557	782.459405522083	538.942740262447	826.153844808115	661.954546230931	611.201093006334	915.257940486261	622.875751248386	531.663915629908	939.644889796036	514.727133320939	555.261805659777	814.141202348295	746.439625205710	329.018335768403	720.211285613948	635.678306666028	270.621872453943	792.905180499238	554.084885417705	340.982290759312	786.808086492197	484.378856183031	354.148077020910	759.395360143615	414.643796883143	345.386820706120	670.324553985768	302.125705973819	292.331363306334	711.012330890891	191.709924963541	369.447593289723	876.130716015528	432.945126730581	564.042888440451	765.980876852507	371.639345612195	625.841006900637	772.282237062249	261.542903620736	578.574502162736	586.656247065401	163.114131935522	551.760713510970	761.992160912686	137.674325255353	593.549216832617	655.163070611015	118.918462322925	627.838796971122	846.555020578089	42.199617811612	627.134818156562	574.553921594566	38.083332752970	407.469929157811	651.770407542312	35.241788208935	329.381688021746	734.585062524010	95.458698123901	359.177232176049	863.603199160573	41.951903983430	335.612077183004	763.573040420686	1100.060002898583	118.954119242862	976.768758466413	951.800468921368	140.750425469242	632.414440343689	1110.598804530067	712.143486043019	622.880360732586	850.372985725923	725.626286235498	
108	3.316285714286	779.639173348005	963.648653637266	294.821948386860	556.089074683561	1012.064919975815	439.456870428841	754.247953951922	1440.898798824123	269.634726525965	839.581596956054	1367.370012194407	439.309621822330	741.152238663010	1441.278214042506	606.245012920007	742.401230145142	1500.750588579943	420.302283069931	776.589056701745	950.064232524040	569.414082518255	862.688384887889	783.588886681781	539.843062593367	825.394701140624	662.988471579066	612.466324578159	914.356719909232	624.102131334575	532.889922012481	940.381066717769	518.007861487159	556.716902487579	811.887870912568	745.473170101038	330.188201329342	717.178311196771	635.565107936663	270.721959412310	788.418142129419	553.326248620017	341.593728268369	781.452562242552	483.787438701374	354.684568118995	754.076984644594	414.233358539619	345.700460399445	664.785729978387	302.004590188991	292.421276579616	704.824412030771	191.488586874109	369.656846008734	881.086039706247	434.494011585306	565.745842620490	775.178648914782	367.063461003943	628.210286895696	787.630669995758	257.548789564125	580.809820386693	608.189011230858	148.411941403997	554.719952268014	784.654217097131	133.376065262389	595.858960703957	679.401019304159	108.357692142978	630.663672139431	874.773078663324	43.079226324390	629.195292079038	567.954313692130	38.055397664477	407.470827679339	645.165701135381	35.232767809586	329.402602404838	727.995563771364	95.427352047491	359.262434361613	857.014319321613	41.892731842664	335.665688987561	768.203979147983	1100.706599398796	118.948018670526	986.409509138714	960.700868786761	141.814076185961	623.070431718494	1113.376592351386	711.328537809631	605.671760758032	853.888037189241	726.254204894373	
109	3.329428571429	779.520339280923	963.358250045620	295.804735788793	555.244613845299	1012.200575280016	438.739809304810	755.582766080863	1440.805703218990	270.243042232539	839.304468801479	1367.155168269129	440.716903512824	739.371929748340	1441.223371049681	606.709968873014	742.535892203673	1500.657585828078	420.790211320142	775.069161842543	950.268602634216	570.325845415210	861.066827039296	784.055520946300	540.974466278860	823.755397193785	663.479835653418	613.923762325818	912.542533681814	624.550127512827	534.368769394013	940.018969171507	520.743162122325	558.301401912129	809.732759223021	744.462767653925	331.447978839321	714.268715548939	635.417816428273	270.863985561193	784.021012599809	552.541075503033	342.257226747209	776.202999350963	483.186631346082	355.247128118756	748.838528392621	413.788701473796	346.048273061952	659.308679051277	301.869339980241	292.531254082252	698.651153933125	191.242927519208	369.891967740250	885.221931527846	435.760109714820	567.557156418021	784.155518590335	362.188375241362	630.728097502030	803.010227179373	253.658727354696	583.103320111214	630.760022273744	133.684990390619	557.671342932344	807.717466944241	129.576247573110	598.167807121676	704.520597749989	98.096156002462	633.471486800853	903.300754899625	45.004806366949	631.205952292390	561.365547233808	38.032249414471	407.462427246185	638.563029588432	35.223196399504	329.424057364369	721.407700835505	95.394183481785	359.354277682994	850.426075650827	41.836734507025	335.723996002383	772.718258984385	1101.198055810637	119.248224782962	995.536162589003	969.500535589273	143.134574440828	614.217654090886	1116.133828166303	710.510691472176	589.815756369945	857.511036884137	726.556899395311	
